<svg width="35" height="140" viewBox="0 0 35 140" fill="none" xmlns="http://www.w3.org/2000/svg">
<path d="M28.5254 135.625C23.3834 129.786 18.9387 123.315 15.1912 116.212C11.4437 109.109 8.54593 101.636 6.49787 93.7923C4.44981 85.9487 3.42578 78.0179 3.42578 70C3.42578 61.9821 4.44981 54.0513 6.49787 46.2077C8.54593 38.364 11.4437 30.8908 15.1912 23.788C18.9387 16.6851 23.3834 10.2141 28.5254 4.375L32.5779 7.7739C27.6103 13.613 23.3399 19.9315 19.7667 26.7293C16.1935 33.4836 13.4482 40.521 11.5309 47.8418C9.61353 55.1625 8.65487 62.5485 8.65487 70C8.65487 77.3207 9.63532 84.685 11.5962 92.0929C13.5571 99.5007 16.3242 106.625 19.8974 113.467C23.4706 120.308 27.6974 126.518 32.5779 132.095L28.5254 135.625Z" fill="white"/>
</svg>
